<svg width="180" height="98" viewBox="0 0 180 98" fill="none" xmlns="http://www.w3.org/2000/svg">
<path d="M15.1087 53.336C12.8687 53.336 10.8527 52.952 9.06072 52.184C7.26872 51.384 5.86072 50.264 4.83672 48.824C3.81272 47.384 3.30072 45.704 3.30072 43.784H9.15672C9.28472 45.224 9.84472 46.408 10.8367 47.336C11.8607 48.264 13.2847 48.728 15.1087 48.728C16.9967 48.728 18.4687 48.28 19.5247 47.384C20.5807 46.456 21.1087 45.272 21.1087 43.832C21.1087 42.712 20.7727 41.8 20.1007 41.096C19.4607 40.392 18.6447 39.848 17.6527 39.464C16.6927 39.08 15.3487 38.664 13.6207 38.216C11.4447 37.64 9.66872 37.064 8.29272 36.488C6.94872 35.88 5.79672 34.952 4.83672 33.704C3.87672 32.456 3.39672 30.792 3.39672 28.712C3.39672 26.792 3.87672 25.112 4.83672 23.672C5.79672 22.232 7.14072 21.128 8.86872 20.36C10.5967 19.592 12.5967 19.208 14.8687 19.208C18.1007 19.208 20.7407 20.024 22.7887 21.656C24.8687 23.256 26.0207 25.464 26.2447 28.28H20.1967C20.1007 27.064 19.5247 26.024 18.4687 25.16C17.4127 24.296 16.0207 23.864 14.2927 23.864C12.7247 23.864 11.4447 24.264 10.4527 25.064C9.46072 25.864 8.96472 27.016 8.96472 28.52C8.96472 29.544 9.26872 30.392 9.87672 31.064C10.5167 31.704 11.3167 32.216 12.2767 32.6C13.2367 32.984 14.5487 33.4 16.2127 33.848C18.4207 34.456 20.2127 35.064 21.5887 35.672C22.9967 36.28 24.1807 37.224 25.1407 38.504C26.1327 39.752 26.6287 41.432 26.6287 43.544C26.6287 45.24 26.1647 46.84 25.2367 48.344C24.3407 49.848 23.0127 51.064 21.2527 51.992C19.5247 52.888 17.4767 53.336 15.1087 53.336ZM56.4135 29.576C56.4135 31.272 56.0135 32.872 55.2135 34.376C54.4135 35.88 53.1335 37.112 51.3735 38.072C49.6135 39 47.3575 39.464 44.6055 39.464H38.5575V53H33.0855V19.64H44.6055C47.1655 19.64 49.3255 20.088 51.0855 20.984C52.8775 21.848 54.2055 23.032 55.0695 24.536C55.9655 26.04 56.4135 27.72 56.4135 29.576ZM44.6055 35C46.6855 35 48.2375 34.536 49.2615 33.608C50.2855 32.648 50.7975 31.304 50.7975 29.576C50.7975 25.928 48.7335 24.104 44.6055 24.104H38.5575V35H44.6055ZM67.1043 24.056V33.848H78.6243V38.312H67.1043V48.536H80.0643V53H61.6323V19.592H80.0643V24.056H67.1043ZM106.916 46.184H92.9482L90.5482 53H84.8362L96.7882 19.592H103.124L115.076 53H109.316L106.916 46.184ZM105.38 41.72L99.9562 26.216L94.4842 41.72H105.38ZM138.657 53L125.745 38.072V53H120.273V19.64H125.745V34.856L138.705 19.64H145.569L131.073 36.344L145.809 53H138.657ZM161.64 53.336C159.4 53.336 157.384 52.952 155.592 52.184C153.8 51.384 152.392 50.264 151.368 48.824C150.344 47.384 149.832 45.704 149.832 43.784H155.688C155.816 45.224 156.376 46.408 157.368 47.336C158.392 48.264 159.816 48.728 161.64 48.728C163.528 48.728 165 48.28 166.056 47.384C167.112 46.456 167.64 45.272 167.64 43.832C167.64 42.712 167.304 41.8 166.632 41.096C165.992 40.392 165.176 39.848 164.184 39.464C163.224 39.08 161.88 38.664 160.152 38.216C157.976 37.64 156.2 37.064 154.824 36.488C153.48 35.88 152.328 34.952 151.368 33.704C150.408 32.456 149.928 30.792 149.928 28.712C149.928 26.792 150.408 25.112 151.368 23.672C152.328 22.232 153.672 21.128 155.4 20.36C157.128 19.592 159.128 19.208 161.4 19.208C164.632 19.208 167.272 20.024 169.32 21.656C171.4 23.256 172.552 25.464 172.776 28.28H166.728C166.632 27.064 166.056 26.024 165 25.16C163.944 24.296 162.552 23.864 160.824 23.864C159.256 23.864 157.976 24.264 156.984 25.064C155.992 25.864 155.496 27.016 155.496 28.52C155.496 29.544 155.8 30.392 156.408 31.064C157.048 31.704 157.848 32.216 158.808 32.6C159.768 32.984 161.08 33.4 162.744 33.848C164.952 34.456 166.744 35.064 168.12 35.672C169.528 36.28 170.712 37.224 171.672 38.504C172.664 39.752 173.16 41.432 173.16 43.544C173.16 45.24 172.696 46.84 171.768 48.344C170.872 49.848 169.544 51.064 167.784 51.992C166.056 52.888 164.008 53.336 161.64 53.336Z" fill="white"/>
<path d="M154.409 69.2506V71.1106H148.509V75.2106H153.109V77.0706H148.509V83.1506H146.229V69.2506H154.409ZM158.802 71.0906V75.1706H163.602V77.0306H158.802V81.2906H164.202V83.1506H156.522V69.2306H164.202V71.0906H158.802ZM174.23 83.1506L171.03 77.5906H169.29V83.1506H167.01V69.2506H171.81C172.877 69.2506 173.777 69.4373 174.51 69.8106C175.257 70.184 175.81 70.684 176.17 71.3106C176.543 71.9373 176.73 72.6373 176.73 73.4106C176.73 74.3173 176.463 75.144 175.93 75.8906C175.41 76.624 174.603 77.124 173.51 77.3906L176.95 83.1506H174.23ZM169.29 75.7706H171.81C172.663 75.7706 173.303 75.5573 173.73 75.1306C174.17 74.704 174.39 74.1306 174.39 73.4106C174.39 72.6906 174.177 72.1306 173.75 71.7306C173.323 71.3173 172.677 71.1106 171.81 71.1106H169.29V75.7706Z" fill="white"/>
</svg>
